<svg width="519" height="228" viewBox="0 0 519 228" fill="none" xmlns="http://www.w3.org/2000/svg">
<path d="M22.8984 198.77H249.768" stroke="#CBCBCB" stroke-width="1.56103" stroke-linecap="round"/>
<path d="M35.8862 218.769C35.8862 219.928 35.6954 220.91 35.3138 221.714C34.9322 222.519 34.3356 223.133 33.5238 223.556C32.719 223.973 31.6714 224.181 30.381 224.181C29.0766 224.181 28.0186 223.966 27.2069 223.536C26.4021 223.105 25.8124 222.474 25.4377 221.642C25.07 220.809 24.8861 219.786 24.8861 218.571V208.924H26.8843V218.863C26.8843 220.077 27.1861 220.986 27.7897 221.589C28.3933 222.193 29.257 222.495 30.381 222.495C31.1372 222.495 31.779 222.363 32.3062 222.099C32.8405 221.836 33.2463 221.437 33.5238 220.903C33.8083 220.361 33.9505 219.682 33.9505 218.863V208.924H35.8862V218.769ZM54.7683 208.924H56.6936V223.973H54.9765L46.9007 212.109V223.973H44.9755V208.924H46.8175L54.7683 220.622V208.924ZM66.1827 208.924H68.108V223.973H66.1827V208.924ZM76.0839 210.693V208.924H87.469V210.693H82.8795V223.973H80.9439V210.693H76.0839ZM95.4666 223.973V208.924H104.958L104.947 210.621H97.4023V215.533H104.198V217.219H97.3919V222.235L105.155 222.256V223.973H95.4666ZM114.153 208.924C114.202 208.924 114.348 208.928 114.591 208.935C114.84 208.935 115.142 208.935 115.496 208.935C115.85 208.928 116.217 208.928 116.599 208.935C116.981 208.935 117.331 208.938 117.65 208.945C119.496 208.973 120.991 209.275 122.136 209.851C123.287 210.419 124.13 211.249 124.664 212.338C125.206 213.427 125.476 214.766 125.476 216.355C125.476 218.02 125.185 219.418 124.602 220.549C124.026 221.68 123.145 222.533 121.959 223.109C120.779 223.685 119.277 223.973 117.452 223.973H114.153V208.924ZM116.131 210.579V222.318H117.452C118.694 222.318 119.763 222.127 120.658 221.746C121.553 221.357 122.24 220.729 122.718 219.862C123.204 218.995 123.447 217.836 123.447 216.386C123.447 214.936 123.211 213.788 122.739 212.941C122.274 212.095 121.601 211.491 120.72 211.131C119.839 210.763 118.778 210.579 117.536 210.579H116.131ZM144.413 208.924C144.462 208.924 144.607 208.928 144.85 208.935C145.1 208.935 145.402 208.935 145.756 208.935C146.109 208.928 146.477 208.928 146.859 208.935C147.24 208.935 147.591 208.938 147.91 208.945C149.755 208.973 151.25 209.275 152.395 209.851C153.547 210.419 154.39 211.249 154.924 212.338C155.465 213.427 155.736 214.766 155.736 216.355C155.736 218.02 155.444 219.418 154.862 220.549C154.286 221.68 153.405 222.533 152.218 223.109C151.039 223.685 149.537 223.973 147.712 223.973H144.413V208.924ZM146.39 210.579V222.318H147.712C148.954 222.318 150.022 222.127 150.917 221.746C151.812 221.357 152.499 220.729 152.978 219.862C153.464 218.995 153.706 217.836 153.706 216.386C153.706 214.936 153.47 213.788 152.999 212.941C152.534 212.095 151.861 211.491 150.98 211.131C150.099 210.763 149.037 210.579 147.795 210.579H146.39ZM175.121 223.973H173.081L170.334 217.489H166.285V223.973H164.36V208.924H170.188C171.27 208.924 172.176 209.091 172.904 209.424C173.633 209.75 174.177 210.222 174.538 210.839C174.899 211.45 175.079 212.182 175.079 213.035C175.079 213.854 174.933 214.534 174.642 215.075C174.358 215.616 173.993 216.053 173.549 216.386C173.105 216.712 172.644 216.965 172.165 217.146L175.121 223.973ZM169.564 215.897C170.694 215.897 171.569 215.668 172.186 215.21C172.804 214.745 173.112 214.058 173.112 213.15C173.112 212.261 172.835 211.599 172.28 211.162C171.732 210.718 170.979 210.496 170.021 210.496H166.285V215.897H169.564ZM183.962 208.924H185.887V223.973H183.962V208.924ZM206.767 208.924L201.429 223.973H199.108L193.863 208.924H195.767L200.273 221.777L204.873 208.924H206.767ZM214.75 223.973V208.924H224.241L224.23 210.621H216.685V215.533H223.481V217.219H216.675V222.235L224.438 222.256V223.973H214.75ZM244.197 223.973H242.157L239.41 217.489H235.362V223.973H233.436V208.924H239.264C240.347 208.924 241.252 209.091 241.98 209.424C242.709 209.75 243.254 210.222 243.614 210.839C243.975 211.45 244.156 212.182 244.156 213.035C244.156 213.854 244.01 214.534 243.718 215.075C243.434 215.616 243.07 216.053 242.626 216.386C242.182 216.712 241.72 216.965 241.242 217.146L244.197 223.973ZM238.64 215.897C239.771 215.897 240.645 215.668 241.262 215.21C241.88 214.745 242.189 214.058 242.189 213.15C242.189 212.261 241.911 211.599 241.356 211.162C240.808 210.718 240.055 210.496 239.098 210.496H235.362V215.897H238.64ZM257.721 224.181C257.013 224.181 256.326 224.094 255.66 223.921C254.994 223.74 254.391 223.473 253.85 223.119C253.308 222.765 252.857 222.328 252.497 221.808C252.143 221.281 251.921 220.67 251.831 219.976H253.85C253.974 220.545 254.221 221.024 254.588 221.413C254.963 221.801 255.417 222.092 255.952 222.287C256.493 222.481 257.079 222.578 257.71 222.578C258.418 222.578 259.049 222.481 259.605 222.287C260.166 222.086 260.607 221.801 260.926 221.433C261.252 221.066 261.415 220.625 261.415 220.112C261.415 219.661 261.311 219.269 261.103 218.936C260.902 218.603 260.607 218.325 260.219 218.103C259.83 217.881 259.358 217.708 258.803 217.583L255.848 216.896C254.738 216.653 253.867 216.22 253.236 215.595C252.611 214.971 252.292 214.145 252.278 213.118C252.278 212.251 252.507 211.488 252.965 210.829C253.43 210.17 254.065 209.656 254.869 209.289C255.681 208.921 256.607 208.737 257.648 208.737C258.848 208.737 259.858 208.942 260.676 209.351C261.495 209.76 262.113 210.298 262.529 210.964C262.945 211.63 263.157 212.341 263.164 213.097H261.176C261.114 212.418 260.912 211.88 260.572 211.484C260.239 211.082 259.82 210.798 259.313 210.631C258.807 210.458 258.255 210.371 257.658 210.371C257.228 210.371 256.812 210.426 256.41 210.537C256.014 210.641 255.657 210.801 255.338 211.016C255.025 211.231 254.776 211.498 254.588 211.817C254.401 212.137 254.307 212.508 254.307 212.931C254.307 213.472 254.491 213.913 254.859 214.253C255.234 214.593 255.91 214.884 256.888 215.127L259.75 215.814C260.499 215.973 261.11 216.209 261.582 216.521C262.061 216.834 262.428 217.187 262.685 217.583C262.949 217.978 263.129 218.391 263.226 218.821C263.33 219.251 263.382 219.675 263.382 220.091C263.382 220.847 263.157 221.537 262.706 222.162C262.255 222.779 261.606 223.272 260.76 223.64C259.92 224 258.907 224.181 257.721 224.181ZM280.955 210.693V208.924H292.34V210.693H287.751V223.973H285.815V210.693H280.955ZM311.099 223.973H309.059L306.312 217.489H302.263V223.973H300.338V208.924H306.166C307.248 208.924 308.154 209.091 308.882 209.424C309.61 209.75 310.155 210.222 310.516 210.839C310.877 211.45 311.057 212.182 311.057 213.035C311.057 213.854 310.911 214.534 310.62 215.075C310.335 215.616 309.971 216.053 309.527 216.386C309.083 216.712 308.622 216.965 308.143 217.146L311.099 223.973ZM305.541 215.897C306.672 215.897 307.546 215.668 308.164 215.21C308.781 214.745 309.09 214.058 309.09 213.15C309.09 212.261 308.813 211.599 308.258 211.162C307.709 210.718 306.957 210.496 305.999 210.496H302.263V215.897H305.541ZM330.553 218.769C330.553 219.928 330.363 220.91 329.981 221.714C329.599 222.519 329.003 223.133 328.191 223.556C327.386 223.973 326.339 224.181 325.048 224.181C323.744 224.181 322.686 223.966 321.874 223.536C321.069 223.105 320.479 222.474 320.105 221.642C319.737 220.809 319.553 219.786 319.553 218.571V208.924H321.551V218.863C321.551 220.077 321.853 220.986 322.457 221.589C323.06 222.193 323.924 222.495 325.048 222.495C325.804 222.495 326.446 222.363 326.973 222.099C327.508 221.836 327.913 221.437 328.191 220.903C328.475 220.361 328.618 219.682 328.618 218.863V208.924H330.553V218.769ZM344.752 224.181C344.045 224.181 343.358 224.094 342.692 223.921C342.026 223.74 341.422 223.473 340.881 223.119C340.34 222.765 339.889 222.328 339.528 221.808C339.174 221.281 338.952 220.67 338.862 219.976H340.881C341.006 220.545 341.252 221.024 341.62 221.413C341.995 221.801 342.449 222.092 342.983 222.287C343.524 222.481 344.111 222.578 344.742 222.578C345.45 222.578 346.081 222.481 346.636 222.287C347.198 222.086 347.638 221.801 347.958 221.433C348.284 221.066 348.447 220.625 348.447 220.112C348.447 219.661 348.343 219.269 348.135 218.936C347.933 218.603 347.638 218.325 347.25 218.103C346.861 217.881 346.39 217.708 345.835 217.583L342.879 216.896C341.769 216.653 340.898 216.22 340.267 215.595C339.643 214.971 339.323 214.145 339.31 213.118C339.31 212.251 339.538 211.488 339.996 210.829C340.461 210.17 341.096 209.656 341.901 209.289C342.713 208.921 343.639 208.737 344.679 208.737C345.88 208.737 346.889 208.942 347.708 209.351C348.527 209.76 349.144 210.298 349.56 210.964C349.977 211.63 350.188 212.341 350.195 213.097H348.207C348.145 212.418 347.944 211.88 347.604 211.484C347.271 211.082 346.851 210.798 346.345 210.631C345.838 210.458 345.287 210.371 344.69 210.371C344.26 210.371 343.843 210.426 343.441 210.537C343.046 210.641 342.688 210.801 342.369 211.016C342.057 211.231 341.807 211.498 341.62 211.817C341.433 212.137 341.339 212.508 341.339 212.931C341.339 213.472 341.523 213.913 341.89 214.253C342.265 214.593 342.942 214.884 343.92 215.127L346.782 215.814C347.531 215.973 348.141 216.209 348.613 216.521C349.092 216.834 349.46 217.187 349.716 217.583C349.98 217.978 350.16 218.391 350.258 218.821C350.362 219.251 350.414 219.675 350.414 220.091C350.414 220.847 350.188 221.537 349.737 222.162C349.286 222.779 348.638 223.272 347.791 223.64C346.952 224 345.939 224.181 344.752 224.181ZM357.329 210.693V208.924H368.714V210.693H364.124V223.973H362.189V210.693H357.329Z" fill="#FCF8F8"/>
<g clip-path="url(#clip0_1882_19646)">
<path d="M419.072 134.631C424.589 134.631 430.264 135.49 435.591 134.481C458.121 130.245 465.596 111.576 462.061 92.5434C461.094 87.2778 458.016 82.8953 454.286 79.1162C449.542 74.2557 443.879 70.586 437.007 70.1162C429.771 69.622 422.49 69.9582 415.213 70.0149C411.573 70.0514 408.927 72.6355 408.911 75.9609C408.881 77.6731 409.523 79.3288 410.698 80.5728C411.873 81.8169 413.488 82.5503 415.197 82.6158C416.944 82.6725 418.696 82.6158 420.455 82.6158C424.828 82.6441 427.546 85.046 427.562 88.902C427.578 92.758 424.836 95.2207 420.504 95.2409C415.161 95.2612 409.825 95.2409 404.478 95.2409C400.433 95.2409 397.849 97.898 397.849 101.981C397.849 106.201 400.749 109.409 404.604 109.434C409.598 109.45 414.586 109.45 419.569 109.434C422.134 109.434 423.829 110.685 424.144 113.144C424.385 115.037 424.278 116.959 423.829 118.814C423.275 121.05 421.665 122.16 419.153 122.103C414.166 121.97 409.17 122.051 404.187 122.063C400.11 122.063 397.901 124.06 397.885 127.689C397.885 131.739 400.551 134.652 404.357 134.676C409.259 134.704 414.166 134.676 419.064 134.676L419.072 134.631ZM446.751 167.614C473.916 156.176 481.537 126.3 472.541 105.44C472.31 106.529 472.104 107.344 471.967 108.178C470.118 119.143 464.759 127.985 455.856 134.579C447.968 140.419 438.969 142.68 429.241 142.619C414.194 142.534 399.147 142.599 383.861 142.599C393.128 165.224 420.609 178.627 446.751 167.614ZM467.982 66.6409C462.133 54.8015 453.097 47.7214 439.296 47.8834C428.375 48.013 417.422 47.8834 406.48 47.8834C401.056 47.8834 395.632 47.8469 390.208 47.8834C386.515 47.9239 383.878 50.2205 383.688 53.3879C383.497 56.9077 385.843 59.7997 389.447 60.3668C390.312 60.481 391.185 60.5203 392.056 60.4843C405 60.4843 417.943 60.4843 430.911 60.4843C441.266 60.5086 450.468 63.8056 458.323 70.6103C463.274 74.9078 466.943 80.1936 469.722 86.1883C470.672 79.5213 471.044 72.8462 467.982 66.6409ZM402.982 177.866C402.897 177.141 401.986 176.286 401.242 175.905C391.814 171.109 384.711 163.985 379.805 154.624C379.446 154.071 379.053 153.54 378.627 153.036C373.709 165.54 374.664 177.007 383 187.214C390.75 196.7 401.068 200.123 413.806 198.486C407.524 192.471 403.948 185.853 402.982 177.866ZM396.457 95.2369C400.126 95.2166 402.626 92.5798 402.609 88.8818C402.593 85.1837 400.118 82.6927 396.36 82.6279C394.265 82.5915 392.145 82.7049 390.074 82.4943C386.936 82.1743 384.27 79.7238 383.797 76.9978C383.34 74.3894 384.606 72.4128 387.801 70.6549C387.991 70.5536 388.161 70.4118 388.744 70.0028C383.315 70.0028 378.36 69.9582 373.406 70.0028C369.429 70.0514 366.416 72.6396 366.359 75.9204C366.295 79.5253 369.316 82.4497 373.337 82.5955C375.258 82.6603 377.183 82.5672 379.105 82.6279C380.38 82.6314 381.622 83.0372 382.653 83.7876C383.685 84.5379 384.455 85.5948 384.852 86.808C385.294 88.0063 385.357 89.3115 385.033 90.5467C384.708 91.782 384.013 92.8877 383.04 93.7139C382.555 94.119 382.021 94.524 381.087 95.2369C386.555 95.2491 391.51 95.2734 396.453 95.2369H396.457ZM478.6 90.6842C478.568 97.1933 483.482 102.2 489.97 102.26C491.477 102.271 492.97 101.985 494.366 101.418C495.762 100.851 497.033 100.014 498.106 98.9546C499.179 97.8956 500.033 96.6354 500.619 95.2459C501.206 93.8564 501.513 92.3649 501.524 90.8564C501.535 89.3479 501.249 87.852 500.683 86.4542C500.116 85.0563 499.281 83.7839 498.223 82.7095C497.166 81.6351 495.907 80.7799 494.52 80.1925C493.132 79.6051 491.642 79.2972 490.136 79.2863C483.656 79.262 478.62 84.2238 478.596 90.6842H478.6ZM337.637 95.2815C330.518 95.2815 323.642 95.1275 316.774 95.3503C313.477 95.4516 311.07 98.7527 311.184 102.167C311.317 105.926 314.343 109.393 317.773 109.426C324.41 109.507 331.052 109.45 338.183 109.45C331.853 104.597 331.719 100.097 337.637 95.2815ZM335.655 48.0373C331.61 48.1872 329.183 52.0351 330.312 55.6926C331.181 58.5684 333.681 60.4357 337.05 60.5086C340.63 60.5855 344.214 60.5086 347.789 60.5086H358.905C352.352 56.6364 352.162 52.1201 358.072 47.9198C350.398 47.936 343.029 47.7457 335.655 48.0373ZM317.231 122.111C313.186 122.16 310.759 124.931 311.22 128.677C311.427 130.294 312.199 131.785 313.401 132.885C314.602 133.985 316.154 134.622 317.781 134.684C321.801 134.757 325.814 134.684 329.83 134.708H338.264C331.938 130.504 331.723 125.627 337.738 122.079C330.502 122.079 323.868 122.014 317.231 122.111ZM328.467 70.0635C324.94 70.1607 322.262 72.9474 322.218 75.9609C322.212 77.649 322.858 79.2741 324.02 80.4968C325.182 81.7195 326.771 82.4453 328.455 82.5226C335.246 82.7332 342.054 82.5793 349.043 82.5793C342.673 77.7958 342.673 74.1747 349.136 70.023C342.074 70.0109 335.271 69.9096 328.479 70.0635H328.467ZM360.915 95.3422C357.703 95.4799 355.305 98.6069 355.321 101.888C355.321 105.387 358.055 109.247 361.097 109.373C366.452 109.588 371.828 109.426 377.527 109.426C371.262 104.565 371.128 100.029 377.062 95.2774C371.496 95.2774 366.194 95.1154 360.915 95.3422ZM361.586 122.095C358.019 122.14 355.56 124.189 355.329 127.142C355.062 130.565 357.4 134.303 360.644 134.518C366.121 134.862 371.63 134.607 377.592 134.607C371.331 130.589 371.12 125.696 377.074 122.079C371.533 122.079 366.578 122.039 361.586 122.095ZM380.124 122.047C385.196 122.071 390.277 122.111 395.353 122.047C396.202 121.982 397.003 121.631 397.626 121.05C399.677 119.106 400.195 113.78 398.552 111.455C397.982 110.645 397.011 109.62 396.194 109.592C390.754 109.43 385.314 109.507 379.59 109.507C382.939 113.557 382.826 117.988 379.558 121.739C379.768 121.848 379.946 122.047 380.124 122.047ZM503.747 77.2004C508.257 73.316 512.783 69.4478 517.123 65.3853C518.709 63.8947 518.575 61.8371 517.099 60.1602C515.623 58.4833 513.56 58.135 511.901 59.4919C507.331 63.2872 502.857 67.2323 498.594 71.3677C497.805 72.1373 497.692 74.2719 498.141 75.4182C498.59 76.5644 500.135 77.3178 501.106 78.1725C502.315 77.7512 503.201 77.6783 503.747 77.2004ZM494.48 49.5684C492.51 48.7866 490.714 49.7101 489.776 51.7637C487.604 56.5148 485.42 61.2619 483.304 66.0414C482.091 68.8079 482.685 71.0518 484.849 72.1171C487.098 73.2026 489.404 72.1454 490.678 69.3628C492.749 64.8479 494.792 60.3222 496.806 55.7858C497.162 54.9757 497.397 54.1656 497.93 52.675C496.863 51.6584 495.864 50.1192 494.48 49.5684Z" fill="#FCF8F8"/>
</g>
<path d="M48.5038 158.256C40.0274 158.256 32.4928 156.634 25.9001 153.39C19.412 150.146 14.3889 145.541 10.8309 139.576C7.27295 133.611 5.49396 126.705 5.49396 118.856V49.4754C5.49396 48.7429 5.70325 48.1673 6.12184 47.7487C6.54042 47.3302 7.11598 47.1209 7.84851 47.1209H32.6498C33.3823 47.1209 33.9579 47.3302 34.3765 47.7487C34.7951 48.1673 35.0044 48.7429 35.0044 49.4754V118.856C35.0044 123.147 36.2078 126.6 38.6147 129.216C41.1262 131.728 44.4226 132.984 48.5038 132.984C52.4804 132.984 55.6721 131.675 58.079 129.059C60.5905 126.443 61.8463 123.042 61.8463 118.856V49.4754C61.8463 48.7429 62.0556 48.1673 62.4741 47.7487C62.8927 47.3302 63.4683 47.1209 64.2008 47.1209H89.0021C89.7346 47.1209 90.3102 47.3302 90.7288 47.7487C91.1474 48.1673 91.3566 48.7429 91.3566 49.4754V118.856C91.3566 126.705 89.5777 133.611 86.0197 139.576C82.4617 145.541 77.4386 150.146 70.9505 153.39C64.4624 156.634 56.9802 158.256 48.5038 158.256ZM110.589 157C109.856 157 109.281 156.791 108.862 156.372C108.444 155.954 108.234 155.378 108.234 154.645V49.4754C108.234 48.7429 108.444 48.1673 108.862 47.7487C109.281 47.3302 109.856 47.1209 110.589 47.1209H150.93C159.406 47.1209 166.889 48.5859 173.377 51.516C179.97 54.4461 185.045 58.5797 188.603 63.9167C192.161 69.2537 193.94 75.4278 193.94 82.4392V121.682C193.94 128.693 192.161 134.867 188.603 140.204C185.045 145.541 179.97 149.675 173.377 152.605C166.889 155.535 159.406 157 150.93 157H110.589ZM137.745 130.943C137.745 131.466 138.006 131.728 138.529 131.728H152.029C155.587 131.728 158.517 130.367 160.819 127.647C163.121 124.821 164.325 121.158 164.43 116.659V87.4622C164.43 82.9624 163.278 79.3521 160.976 76.6313C158.674 73.8058 155.639 72.3931 151.872 72.3931H138.529C138.006 72.3931 137.745 72.6547 137.745 73.1779V130.943ZM288.15 47.1209C288.882 47.1209 289.458 47.3302 289.877 47.7487C290.295 48.1673 290.504 48.7429 290.504 49.4754V70.1955C290.504 70.928 290.295 71.5036 289.877 71.9222C289.458 72.3407 288.882 72.55 288.15 72.55H261.779C261.256 72.55 260.994 72.8117 260.994 73.3349V154.645C260.994 155.378 260.785 155.954 260.366 156.372C259.948 156.791 259.372 157 258.639 157H233.838C233.106 157 232.53 156.791 232.111 156.372C231.693 155.954 231.484 155.378 231.484 154.645V73.3349C231.484 72.8117 231.222 72.55 230.699 72.55H205.113C204.38 72.55 203.805 72.3407 203.386 71.9222C202.967 71.5036 202.758 70.928 202.758 70.1955V49.4754C202.758 48.7429 202.967 48.1673 203.386 47.7487C203.805 47.3302 204.38 47.1209 205.113 47.1209H288.15Z" fill="#FCF8F8"/>
<defs>
<clipPath id="clip0_1882_19646">
<rect width="207.097" height="151.008" fill="white" transform="translate(311.164 47.8711)"/>
</clipPath>
</defs>
</svg>
