<svg width="50" height="22" viewBox="0 0 50 22" fill="none" xmlns="http://www.w3.org/2000/svg">
<g clip-path="url(#clip0_101_2)">
<path d="M2.20605 19.1494H24.0624" stroke="#CBCBCB" stroke-width="0.2" stroke-linecap="round"/>
<path d="M3.4572 21.0761C3.4572 21.1878 3.43882 21.2824 3.40206 21.3598C3.36529 21.4374 3.30782 21.4965 3.22961 21.5373C3.15208 21.5774 3.05115 21.5975 2.92684 21.5975C2.80117 21.5975 2.69924 21.5768 2.62104 21.5353C2.54351 21.4938 2.4867 21.433 2.4506 21.3529C2.41518 21.2726 2.39746 21.1741 2.39746 21.057V20.1276H2.58997V21.0852C2.58997 21.2021 2.61904 21.2897 2.67719 21.3478C2.73534 21.406 2.81855 21.4351 2.92684 21.4351C2.99969 21.4351 3.06152 21.4223 3.11231 21.3969C3.16378 21.3716 3.20288 21.3331 3.22961 21.2817C3.25702 21.2295 3.27072 21.1641 3.27072 21.0852V20.1276H3.4572V21.0761ZM5.27629 20.1276H5.46177V21.5774H5.29635L4.51833 20.4345V21.5774H4.33286V20.1276H4.51031L5.27629 21.2546V20.1276ZM6.37594 20.1276H6.56142V21.5774H6.37594V20.1276ZM7.32982 20.2981V20.1276H8.42665V20.2981H7.9845V21.5774H7.79802V20.2981H7.32982ZM9.19713 21.5774V20.1276H10.1115L10.1105 20.2911H9.38361V20.7643H10.0383V20.9268H9.38261V21.41L10.1305 21.412V21.5774H9.19713ZM10.9974 20.1276C11.0021 20.1276 11.0161 20.128 11.0396 20.1287C11.0635 20.1287 11.0926 20.1287 11.1267 20.1287C11.1609 20.128 11.1962 20.128 11.233 20.1287C11.2698 20.1287 11.3035 20.129 11.3343 20.1297C11.5121 20.1324 11.6561 20.1614 11.7664 20.2169C11.8773 20.2717 11.9585 20.3516 12.01 20.4565C12.0622 20.5615 12.0882 20.6904 12.0882 20.8435C12.0882 21.0039 12.0602 21.1386 12.004 21.2476C11.9485 21.3565 11.8636 21.4387 11.7494 21.4942C11.6357 21.5497 11.491 21.5774 11.3152 21.5774H10.9974V20.1276ZM11.1879 20.2871V21.418H11.3152C11.4348 21.418 11.5378 21.3996 11.624 21.3629C11.7103 21.3254 11.7765 21.2649 11.8225 21.1814C11.8693 21.0979 11.8927 20.9862 11.8927 20.8465C11.8927 20.7068 11.87 20.5962 11.8245 20.5146C11.7797 20.4331 11.7149 20.3749 11.63 20.3403C11.5451 20.3048 11.4429 20.2871 11.3233 20.2871H11.1879ZM13.9126 20.1276C13.9173 20.1276 13.9313 20.128 13.9547 20.1287C13.9788 20.1287 14.0079 20.1287 14.042 20.1287C14.076 20.128 14.1114 20.128 14.1482 20.1287C14.1849 20.1287 14.2188 20.129 14.2495 20.1297C14.4272 20.1324 14.5713 20.1614 14.6816 20.2169C14.7925 20.2717 14.8738 20.3516 14.9252 20.4565C14.9773 20.5615 15.0034 20.6904 15.0034 20.8435C15.0034 21.0039 14.9753 21.1386 14.9192 21.2476C14.8637 21.3565 14.7789 21.4387 14.6645 21.4942C14.5509 21.5497 14.4062 21.5774 14.2304 21.5774H13.9126V20.1276ZM14.103 20.2871V21.418H14.2304C14.3501 21.418 14.453 21.3996 14.5392 21.3629C14.6254 21.3254 14.6916 21.2649 14.7377 21.1814C14.7846 21.0979 14.8079 20.9862 14.8079 20.8465C14.8079 20.7068 14.7851 20.5962 14.7398 20.5146C14.695 20.4331 14.6301 20.3749 14.5452 20.3403C14.4604 20.3048 14.3581 20.2871 14.2384 20.2871H14.103ZM16.871 21.5774H16.6744L16.4098 20.9528H16.0197V21.5774H15.8343V20.1276H16.3957C16.5 20.1276 16.5873 20.1437 16.6574 20.1758C16.7276 20.2072 16.78 20.2527 16.8148 20.3121C16.8496 20.371 16.8669 20.4415 16.8669 20.5237C16.8669 20.6026 16.8529 20.6681 16.8248 20.7202C16.7975 20.7723 16.7623 20.8144 16.7195 20.8465C16.6768 20.8779 16.6323 20.9023 16.5862 20.9197L16.871 21.5774ZM16.3356 20.7994C16.4445 20.7994 16.5288 20.7773 16.5882 20.7332C16.6478 20.6884 16.6774 20.6222 16.6774 20.5348C16.6774 20.4491 16.6507 20.3853 16.5973 20.3432C16.5445 20.3005 16.4719 20.2791 16.3796 20.2791H16.0197V20.7994H16.3356ZM17.7227 20.1276H17.9082V21.5774H17.7227V20.1276ZM19.9197 20.1276L19.4055 21.5774H19.1819L18.6766 20.1276H18.86L19.2941 21.3659L19.7373 20.1276H19.9197ZM20.6888 21.5774V20.1276H21.6032L21.6021 20.2911H20.8752V20.7643H21.5299V20.9268H20.8743V21.41L21.6221 21.412V21.5774H20.6888ZM23.5257 21.5774H23.3292L23.0645 20.9528H22.6745V21.5774H22.489V20.1276H23.0505C23.1548 20.1276 23.242 20.1437 23.3121 20.1758C23.3823 20.2072 23.4349 20.2527 23.4695 20.3121C23.5043 20.371 23.5217 20.4415 23.5217 20.5237C23.5217 20.6026 23.5077 20.6681 23.4796 20.7202C23.4522 20.7723 23.4171 20.8144 23.3743 20.8465C23.3316 20.8779 23.2871 20.9023 23.241 20.9197L23.5257 21.5774ZM22.9903 20.7994C23.0993 20.7994 23.1835 20.7773 23.2429 20.7332C23.3025 20.6884 23.3322 20.6222 23.3322 20.5348C23.3322 20.4491 23.3055 20.3853 23.252 20.3432C23.1992 20.3005 23.1267 20.2791 23.0345 20.2791H22.6745V20.7994H22.9903ZM24.8286 21.5975C24.7604 21.5975 24.6942 21.5891 24.63 21.5724C24.5659 21.555 24.5078 21.5293 24.4557 21.4952C24.4034 21.4611 24.36 21.419 24.3253 21.3689C24.2912 21.3181 24.2698 21.2592 24.2612 21.1924H24.4557C24.4676 21.2472 24.4914 21.2933 24.5268 21.3308C24.5629 21.3682 24.6066 21.3962 24.6582 21.415C24.7103 21.4337 24.7667 21.4431 24.8275 21.4431C24.8957 21.4431 24.9565 21.4337 25.0101 21.415C25.0641 21.3957 25.1066 21.3682 25.1374 21.3327C25.1688 21.2974 25.1845 21.2549 25.1845 21.2055C25.1845 21.162 25.1744 21.1243 25.1544 21.0922C25.135 21.0601 25.1066 21.0333 25.0692 21.0119C25.0318 20.9905 24.9863 20.9739 24.9328 20.9618L24.6481 20.8957C24.5412 20.8722 24.4573 20.8305 24.3965 20.7703C24.3363 20.7102 24.3056 20.6306 24.3042 20.5317C24.3042 20.4482 24.3263 20.3746 24.3704 20.3112C24.4152 20.2477 24.4764 20.1982 24.5538 20.1628C24.6321 20.1273 24.7213 20.1096 24.8216 20.1096C24.9372 20.1096 25.0345 20.1294 25.1133 20.1688C25.1922 20.2082 25.2517 20.26 25.2918 20.3242C25.3319 20.3883 25.3523 20.4568 25.353 20.5297H25.1614C25.1555 20.4642 25.136 20.4124 25.1033 20.3743C25.0712 20.3355 25.0308 20.3082 24.982 20.2921C24.9332 20.2754 24.88 20.267 24.8225 20.267C24.7811 20.267 24.741 20.2723 24.7023 20.283C24.6641 20.293 24.6297 20.3085 24.599 20.3292C24.5689 20.3499 24.5449 20.3756 24.5268 20.4063C24.5087 20.4372 24.4997 20.4729 24.4997 20.5137C24.4997 20.5658 24.5174 20.6083 24.5529 20.641C24.589 20.6738 24.6541 20.7018 24.7483 20.7252L25.0241 20.7914C25.0962 20.8067 25.1551 20.8295 25.2006 20.8595C25.2467 20.8897 25.2821 20.9237 25.3068 20.9618C25.3323 20.9999 25.3496 21.0397 25.3589 21.0811C25.369 21.1225 25.374 21.1634 25.374 21.2035C25.374 21.2763 25.3523 21.3428 25.3088 21.403C25.2654 21.4624 25.2029 21.5099 25.1214 21.5454C25.0404 21.58 24.9428 21.5975 24.8286 21.5975ZM27.0669 20.2981V20.1276H28.1638V20.2981H27.7217V21.5774H27.5351V20.2981H27.0669ZM29.971 21.5774H29.7745L29.5098 20.9528H29.1197V21.5774H28.9343V20.1276H29.4957C29.6 20.1276 29.6873 20.1437 29.7574 20.1758C29.8275 20.2072 29.88 20.2527 29.9148 20.3121C29.9496 20.371 29.9669 20.4415 29.9669 20.5237C29.9669 20.6026 29.9529 20.6681 29.9248 20.7202C29.8974 20.7723 29.8623 20.8144 29.8195 20.8465C29.7768 20.8779 29.7324 20.9023 29.6862 20.9197L29.971 21.5774ZM29.4355 20.7994C29.5445 20.7994 29.6287 20.7773 29.6882 20.7332C29.7477 20.6884 29.7774 20.6222 29.7774 20.5348C29.7774 20.4491 29.7508 20.3853 29.6973 20.3432C29.6444 20.3005 29.5719 20.2791 29.4797 20.2791H29.1197V20.7994H29.4355ZM31.8452 21.0761C31.8452 21.1878 31.8269 21.2824 31.7901 21.3598C31.7533 21.4374 31.6958 21.4965 31.6176 21.5373C31.5401 21.5774 31.4392 21.5975 31.3148 21.5975C31.1892 21.5975 31.0873 21.5768 31.009 21.5353C30.9315 21.4938 30.8746 21.433 30.8386 21.3529C30.8032 21.2726 30.7854 21.1741 30.7854 21.057V20.1276H30.9779V21.0852C30.9779 21.2021 31.007 21.2897 31.0652 21.3478C31.1233 21.406 31.2065 21.4351 31.3148 21.4351C31.3877 21.4351 31.4495 21.4223 31.5003 21.3969C31.5518 21.3716 31.5908 21.3331 31.6176 21.2817C31.645 21.2295 31.6588 21.1641 31.6588 21.0852V20.1276H31.8452V21.0761ZM33.2131 21.5975C33.145 21.5975 33.0788 21.5891 33.0146 21.5724C32.9505 21.555 32.8923 21.5293 32.8402 21.4952C32.788 21.4611 32.7446 21.419 32.7098 21.3689C32.6757 21.3181 32.6543 21.2592 32.6456 21.1924H32.8402C32.8522 21.2472 32.8759 21.2933 32.9114 21.3308C32.9475 21.3682 32.9912 21.3962 33.0427 21.415C33.0948 21.4337 33.1513 21.4431 33.2121 21.4431C33.2803 21.4431 33.3411 21.4337 33.3946 21.415C33.4487 21.3957 33.4911 21.3682 33.522 21.3327C33.5534 21.2974 33.5691 21.2549 33.5691 21.2055C33.5691 21.162 33.559 21.1243 33.539 21.0922C33.5195 21.0601 33.4911 21.0333 33.4537 21.0119C33.4163 20.9905 33.3709 20.9739 33.3174 20.9618L33.0326 20.8957C32.9257 20.8722 32.8418 20.8305 32.781 20.7703C32.7209 20.7102 32.6901 20.6306 32.6888 20.5317C32.6888 20.4482 32.7108 20.3746 32.7549 20.3112C32.7997 20.2477 32.8609 20.1982 32.9384 20.1628C33.0167 20.1273 33.1059 20.1096 33.2061 20.1096C33.3218 20.1096 33.419 20.1294 33.4979 20.1688C33.5768 20.2082 33.6362 20.26 33.6763 20.3242C33.7165 20.3883 33.7368 20.4568 33.7375 20.5297H33.5459C33.54 20.4642 33.5206 20.4124 33.4878 20.3743C33.4558 20.3355 33.4153 20.3082 33.3666 20.2921C33.3177 20.2754 33.2646 20.267 33.2071 20.267C33.1657 20.267 33.1255 20.2723 33.0868 20.283C33.0487 20.293 33.0142 20.3085 32.9835 20.3292C32.9535 20.3499 32.9294 20.3756 32.9114 20.4063C32.8933 20.4372 32.8843 20.4729 32.8843 20.5137C32.8843 20.5658 32.902 20.6083 32.9374 20.641C32.9735 20.6738 33.0387 20.7018 33.1329 20.7252L33.4087 20.7914C33.4808 20.8067 33.5396 20.8295 33.5851 20.8595C33.6312 20.8897 33.6667 20.9237 33.6913 20.9618C33.7167 20.9999 33.7341 21.0397 33.7435 21.0811C33.7535 21.1225 33.7586 21.1634 33.7586 21.2035C33.7586 21.2763 33.7368 21.3428 33.6933 21.403C33.6499 21.4624 33.5875 21.5099 33.5059 21.5454C33.425 21.58 33.3274 21.5975 33.2131 21.5975ZM34.4247 20.2981V20.1276H35.5216V20.2981H35.0794V21.5774H34.893V20.2981H34.4247Z" fill="#FCF8F8"/>
<mask id="mask0_101_2" style="mask-type:luminance" maskUnits="userSpaceOnUse" x="29" y="4" width="21" height="16">
<path d="M49.9288 4.61182H29.9773V19.1598H49.9288V4.61182Z" fill="white"/>
</mask>
<g mask="url(#mask0_101_2)">
<path d="M40.373 12.9701C40.9045 12.9701 41.4513 13.0528 41.9645 12.9556C44.135 12.5475 44.8551 10.749 44.5145 8.91539C44.4214 8.40811 44.1249 7.9859 43.7655 7.62183C43.3085 7.15357 42.7629 6.80004 42.1009 6.75478C41.4038 6.70717 40.7023 6.73956 40.0013 6.74502C39.6506 6.74853 39.3957 6.99748 39.3941 7.31785C39.3912 7.4828 39.4531 7.64231 39.5663 7.76216C39.6795 7.88201 39.8351 7.95267 39.9997 7.95898C40.168 7.96444 40.3368 7.95898 40.5063 7.95898C40.9276 7.9617 41.1894 8.1931 41.1909 8.56458C41.1925 8.93607 40.9283 9.17332 40.511 9.17527C39.9962 9.17722 39.4822 9.17527 38.9671 9.17527C38.5774 9.17527 38.3284 9.43125 38.3284 9.8246C38.3284 10.2312 38.6078 10.5402 38.9792 10.5426C39.4603 10.5442 39.9409 10.5442 40.4209 10.5426C40.668 10.5426 40.8313 10.6631 40.8617 10.9C40.8849 11.0824 40.8746 11.2676 40.8313 11.4463C40.7779 11.6617 40.6228 11.7686 40.3808 11.7631C39.9004 11.7503 39.4191 11.7581 38.939 11.7593C38.5463 11.7593 38.3334 11.9517 38.3319 12.3013C38.3319 12.6915 38.5887 12.9721 38.9554 12.9744C39.4277 12.9771 39.9004 12.9744 40.3723 12.9744L40.373 12.9701ZM43.0396 16.1476C45.6566 15.0457 46.3908 12.1675 45.5242 10.1578C45.5019 10.2628 45.4821 10.3413 45.4689 10.4216C45.2908 11.478 44.7745 12.3298 43.9168 12.9651C43.1568 13.5277 42.2899 13.7455 41.3527 13.7396C39.9031 13.7314 38.4535 13.7377 36.9808 13.7377C37.8736 15.9174 40.5211 17.2086 43.0396 16.1476ZM45.085 6.41997C44.5215 5.27937 43.651 4.59728 42.3214 4.61289C41.2693 4.62538 40.2141 4.61289 39.1599 4.61289C38.6374 4.61289 38.1148 4.60937 37.5923 4.61289C37.2365 4.61679 36.9825 4.83804 36.9642 5.14319C36.9458 5.48228 37.1718 5.7609 37.519 5.81553C37.6023 5.82653 37.6864 5.83032 37.7703 5.82685C39.0173 5.82685 40.2643 5.82685 41.5136 5.82685C42.5112 5.82919 43.3977 6.14682 44.1544 6.80238C44.6314 7.21639 44.9849 7.72562 45.2526 8.30315C45.3441 7.66086 45.38 7.01778 45.085 6.41997ZM38.8229 17.1353C38.8147 17.0654 38.727 16.9831 38.6553 16.9464C37.747 16.4843 37.0627 15.798 36.5901 14.8962C36.5555 14.8429 36.5176 14.7917 36.4766 14.7432C36.0028 15.9478 36.0948 17.0525 36.8979 18.0359C37.6445 18.9497 38.6385 19.2795 39.8657 19.1218C39.2605 18.5423 38.916 17.9047 38.8229 17.1353ZM38.1943 9.17488C38.5478 9.17293 38.7886 8.9189 38.787 8.56264C38.7855 8.20637 38.547 7.96638 38.185 7.96014C37.9831 7.95664 37.7789 7.96756 37.5794 7.94727C37.2771 7.91644 37.0202 7.68036 36.9747 7.41774C36.9306 7.16645 37.0526 6.97603 37.3604 6.80667C37.3787 6.79692 37.3951 6.78325 37.4513 6.74385C36.9282 6.74385 36.4509 6.73956 35.9736 6.74385C35.5905 6.74853 35.3002 6.99788 35.2947 7.31395C35.2885 7.66124 35.5796 7.94297 35.967 7.95702C36.152 7.96326 36.3375 7.95429 36.5227 7.96014C36.6455 7.96048 36.7651 7.99957 36.8645 8.07187C36.9639 8.14415 37.0381 8.24597 37.0763 8.36285C37.1189 8.47829 37.125 8.60403 37.0937 8.72303C37.0624 8.84204 36.9955 8.94856 36.9017 9.02816C36.855 9.06718 36.8036 9.1062 36.7136 9.17488C37.2404 9.17606 37.7177 9.1784 38.1939 9.17488H38.1943ZM46.1079 8.73628C46.1048 9.36336 46.5782 9.8457 47.2033 9.85148C47.3485 9.85254 47.4923 9.82499 47.6268 9.77036C47.7613 9.71574 47.8837 9.6351 47.9871 9.53304C48.0905 9.43102 48.1727 9.30961 48.2292 9.17575C48.2857 9.04189 48.3153 8.8982 48.3164 8.75287C48.3174 8.60754 48.2899 8.46343 48.2354 8.32876C48.1807 8.19409 48.1003 8.07151 47.9984 7.968C47.8965 7.8645 47.7752 7.78211 47.6416 7.72552C47.5079 7.66893 47.3644 7.63927 47.2193 7.63822C46.595 7.63587 46.1098 8.11389 46.1075 8.73628H46.1079ZM32.5277 9.17918C31.8418 9.17918 31.1794 9.16434 30.5177 9.18581C30.2001 9.19557 29.9682 9.51359 29.9792 9.84252C29.992 10.2047 30.2835 10.5387 30.614 10.5418C31.2534 10.5496 31.8933 10.5442 32.5803 10.5442C31.9704 10.0766 31.9575 9.6431 32.5277 9.17918ZM32.3367 4.62772C31.947 4.64216 31.7132 5.01286 31.822 5.36522C31.9057 5.64227 32.1465 5.82217 32.4711 5.82919C32.816 5.8366 33.1613 5.82919 33.5057 5.82919H34.5766C33.9453 5.45615 33.927 5.02105 34.4964 4.6164C33.757 4.61796 33.0471 4.59963 32.3367 4.62772ZM30.5618 11.7639C30.1721 11.7686 29.9383 12.0356 29.9827 12.3965C30.0026 12.5522 30.077 12.6959 30.1928 12.8019C30.3085 12.9078 30.458 12.9692 30.6148 12.9752C31.002 12.9822 31.3886 12.9752 31.7755 12.9775H32.5881C31.9786 12.5725 31.9579 12.1026 32.5374 11.7608C31.8403 11.7608 31.2012 11.7546 30.5618 11.7639ZM31.6442 6.7497C31.3044 6.75906 31.0464 7.02753 31.0422 7.31785C31.0416 7.48048 31.1039 7.63704 31.2158 7.75483C31.3278 7.87263 31.4808 7.94255 31.6431 7.95C32.2973 7.97029 32.9532 7.95546 33.6265 7.95546C33.0128 7.49462 33.0128 7.14577 33.6355 6.7458C32.9551 6.74463 32.2997 6.73487 31.6454 6.7497H31.6442ZM34.7702 9.18503C34.4608 9.19829 34.2298 9.49954 34.2313 9.81564C34.2313 10.1527 34.4947 10.5246 34.7878 10.5367C35.3037 10.5575 35.8216 10.5418 36.3706 10.5418C35.7671 10.0735 35.7542 9.63655 36.3258 9.17878C35.7896 9.17878 35.2788 9.16318 34.7702 9.18503ZM34.8349 11.7624C34.4912 11.7667 34.2543 11.9641 34.2321 12.2486C34.2064 12.5784 34.4316 12.9385 34.7441 12.9592C35.2718 12.9923 35.8025 12.9678 36.3769 12.9678C35.7737 12.5807 35.7534 12.1093 36.327 11.7608C35.7932 11.7608 35.3158 11.757 34.8349 11.7624ZM36.6208 11.7577C37.1094 11.7601 37.5989 11.7639 38.088 11.7577C38.1698 11.7515 38.2469 11.7177 38.3069 11.6617C38.5045 11.4744 38.5544 10.9613 38.3962 10.7373C38.3412 10.6593 38.2477 10.5605 38.169 10.5578C37.6449 10.5422 37.1208 10.5496 36.5694 10.5496C36.892 10.9398 36.8811 11.3667 36.5663 11.7281C36.5865 11.7386 36.6037 11.7577 36.6208 11.7577ZM48.5305 7.43726C48.965 7.06304 49.4011 6.69038 49.8192 6.29901C49.972 6.1554 49.9591 5.95718 49.8169 5.79563C49.6747 5.63407 49.4759 5.60052 49.3161 5.73124C48.8758 6.09688 48.4448 6.47694 48.0341 6.87535C47.9581 6.94949 47.9472 7.15513 47.9905 7.26557C48.0337 7.37599 48.1826 7.44857 48.2761 7.53091C48.3926 7.49033 48.4779 7.4833 48.5305 7.43726ZM47.6378 4.77522C47.448 4.6999 47.2749 4.78887 47.1846 4.98672C46.9753 5.44443 46.7649 5.90176 46.5611 6.36221C46.4442 6.62874 46.5014 6.84491 46.7099 6.94754C46.9266 7.05212 47.1487 6.95027 47.2715 6.6822C47.471 6.24723 47.6678 5.81123 47.8618 5.3742C47.8961 5.29616 47.9188 5.21811 47.9701 5.07451C47.8673 4.97657 47.7711 4.82829 47.6378 4.77522Z" fill="#FCF8F8"/>
</g>
<path d="M4.67282 15.2462C3.85621 15.2462 3.13034 15.09 2.4952 14.7774C1.87015 14.4649 1.38623 14.0213 1.04345 13.4466C0.700683 12.8719 0.529297 12.2066 0.529297 11.4505V4.76638C0.529297 4.69581 0.54946 4.64036 0.589786 4.60003C0.630112 4.55971 0.68556 4.53955 0.756132 4.53955H3.14546C3.21603 4.53955 3.27148 4.55971 3.31181 4.60003C3.35214 4.64036 3.3723 4.69581 3.3723 4.76638V11.4505C3.3723 11.8639 3.48823 12.1965 3.72011 12.4485C3.96207 12.6905 4.27964 12.8115 4.67282 12.8115C5.05592 12.8115 5.3634 12.6854 5.59528 12.4334C5.83724 12.1814 5.95822 11.8537 5.95822 11.4505V4.76638C5.95822 4.69581 5.97838 4.64036 6.0187 4.60003C6.05903 4.55971 6.11448 4.53955 6.18505 4.53955H8.57438C8.64495 4.53955 8.7004 4.55971 8.74073 4.60003C8.78105 4.64036 8.80121 4.69581 8.80121 4.76638V11.4505C8.80121 12.2066 8.62983 12.8719 8.28706 13.4466C7.94428 14.0213 7.46036 14.4649 6.83531 14.7774C6.21025 15.09 5.48942 15.2462 4.67282 15.2462ZM10.654 15.1252C10.5834 15.1252 10.528 15.1051 10.4877 15.0647C10.4474 15.0245 10.4272 14.969 10.4272 14.8983V4.76638C10.4272 4.69581 10.4474 4.64036 10.4877 4.60003C10.528 4.55971 10.5834 4.53955 10.654 4.53955H14.5404C15.357 4.53955 16.0779 4.68069 16.703 4.96297C17.3381 5.24526 17.827 5.64348 18.1698 6.15765C18.5126 6.67181 18.684 7.26662 18.684 7.94209V11.7227C18.684 12.3981 18.5126 12.9929 18.1698 13.5071C17.827 14.0213 17.3381 14.4195 16.703 14.7018C16.0779 14.9841 15.357 15.1252 14.5404 15.1252H10.654ZM13.2702 12.6149C13.2702 12.6653 13.2954 12.6905 13.3457 12.6905H14.6463C14.9891 12.6905 15.2714 12.5594 15.4931 12.2974C15.7149 12.0251 15.8309 11.6722 15.841 11.2388V8.426C15.841 7.9925 15.73 7.64468 15.5083 7.38256C15.2865 7.11036 14.9941 6.97426 14.6312 6.97426H13.3457C13.2954 6.97426 13.2702 6.99946 13.2702 7.04986V12.6149ZM27.7601 4.53955C27.8306 4.53955 27.8861 4.55971 27.9264 4.60003C27.9667 4.64036 27.9869 4.69581 27.9869 4.76638V6.76254C27.9869 6.83311 27.9667 6.88856 27.9264 6.92889C27.8861 6.96921 27.8306 6.98937 27.7601 6.98937H25.2195C25.1691 6.98937 25.1439 7.01458 25.1439 7.06499V14.8983C25.1439 14.969 25.1238 15.0245 25.0834 15.0647C25.0431 15.1051 24.9876 15.1252 24.917 15.1252H22.5277C22.4572 15.1252 22.4017 15.1051 22.3613 15.0647C22.3211 15.0245 22.3009 14.969 22.3009 14.8983V7.06499C22.3009 7.01458 22.2757 6.98937 22.2253 6.98937H19.7604C19.6898 6.98937 19.6344 6.96921 19.594 6.92889C19.5536 6.88856 19.5335 6.83311 19.5335 6.76254V4.76638C19.5335 4.69581 19.5536 4.64036 19.594 4.60003C19.6344 4.55971 19.6898 4.53955 19.7604 4.53955H27.7601Z" fill="#FCF8F8"/>
</g>
<defs>
<clipPath id="clip0_101_2">
<rect width="50" height="21.9653" fill="white"/>
</clipPath>
</defs>
</svg>
